<svg width="99" height="28" fill="none" xmlns="http://www.w3.org/2000/svg"><path fill-rule="evenodd" clip-rule="evenodd" d="M86.394 21h-3.116V4.5h3.115V21zM40.05 15.489V21h-3.223V5.359h6.102c1.174 0 2.208.215 3.1.645.89.43 1.576 1.04 2.056 1.832.48.791.72 1.692.72 2.702 0 1.533-.525 2.741-1.574 3.625-1.049.884-2.501 1.327-4.356 1.327l-2.825-.001zm0-2.61h2.88c.851 0 1.501-.201 1.95-.602.447-.401.67-.974.67-1.719 0-.766-.226-1.386-.677-1.858-.45-.473-1.074-.716-1.869-.73H40.05v4.909zm16.178-.677c.322 0 .694.029 1.117.086l.044-2.987a3.259 3.259 0 0 0-.967-.14c-1.103 0-1.966.534-2.589 1.601l-.086-1.386h-2.933v11.623h3.104v-7.605c.366-.795 1.136-1.192 2.31-1.192zm7.96 9.013c-1.704 0-3.092-.523-4.163-1.568-1.07-1.046-1.606-2.438-1.606-4.179v-.301c0-1.167.226-2.211.677-3.131.45-.92 1.09-1.629 1.917-2.127.827-.498 1.771-.747 2.83-.747 1.591 0 2.842.501 3.755 1.504.913 1.003 1.37 2.424 1.37 4.265v1.268h-7.401c.1.759.403 1.368.908 1.826.505.458 1.144.688 1.917.688 1.196 0 2.13-.433 2.804-1.3l1.525 1.708c-.465.659-1.096 1.173-1.891 1.542-.795.369-1.676.553-2.642.552zm-1.853-8.916c.384-.415.883-.623 1.499-.623.657 0 1.166.188 1.524.564.358.376.545.907.559 1.595v.247h-4.318c.108-.773.353-1.368.736-1.783zm18.858 2.997c0 1.79-.406 3.224-1.219 4.302-.813 1.078-1.91 1.617-3.292 1.617-1.174 0-2.123-.408-2.847-1.225v5.479H70.73V9.377h2.879l.107 1.139c.752-.902 1.733-1.354 2.943-1.354 1.432 0 2.546.53 3.34 1.59.796 1.06 1.193 2.521 1.193 4.383v.161zm-3.679-2.729c.383.587.575 1.422.575 2.503 0 2.427-.742 3.641-2.224 3.641-.974 0-1.65-.383-2.03-1.149v-4.759c.365-.745 1.035-1.117 2.009-1.117.73 0 1.287.294 1.67.881zm17.923-3.19l-2.148 7.229-2.16-7.23h-3.341l4.07 11.655-.364.956c-.165.416-.392.713-.682.892-.29.179-.729.269-1.316.269l-.473-.011v2.353c.465.136.924.204 1.375.204 1.598 0 2.743-.759 3.438-2.277l.258-.612 4.673-13.428h-3.33z" fill="#fff"/><path d="M12.598 6.54c0-1.161-2.096-1.753-4.594-2.459C5.454 3.361 2.56 2.543.45.687L.377.656.248.668.243.67v10.756c0 .65.132 1.247.393 1.791.27.558.678 1.074 1.227 1.545 1.76 1.508 4.38 2.248 6.693 2.901 1.537.434 2.96.836 4.042 1.413V6.541m2.084-.255c.112.391.482.714 1.03 1.002.9-.367 1.967-.668 3.1-.988 1.7-.48 3.562-1.007 5.154-1.851a.568.568 0 0 1 .53 1.007c-1.699.901-3.623 1.444-5.378 1.94-.63.178-1.239.35-1.798.528.587.189 1.24.373 1.92.566l1.274.365c1.185-.363 2.38-.787 3.452-1.355a.57.57 0 0 1 .529 1.007c-.687.364-1.412.67-2.147.938 1.567.559 3.1 1.281 4.361 2.363l.252.225c.027-.197.04-.399.04-.607V.67l-.004-.002-.129-.012-.072.031c-2.11 1.856-5.006 2.674-7.555 3.394-2.309.652-4.275 1.208-4.559 2.205m-.036 15.3c0 1.161 2.096 1.753 4.594 2.459 2.55.72 5.445 1.538 7.555 3.394l.072.031.129-.012.004-.002V16.7a4.08 4.08 0 0 0-.393-1.79c-.269-.558-.679-1.074-1.228-1.545-1.759-1.507-4.38-2.248-6.692-2.901-1.537-.434-2.959-.836-4.042-1.413v12.535m-3.112-.748c-.9.366-1.967.668-3.1.988-1.7.48-3.563 1.007-5.155 1.85a.568.568 0 1 1-.529-1.007c1.698-.901 3.622-1.444 5.377-1.939.631-.179 1.24-.35 1.798-.528a54.1 54.1 0 0 0-1.92-.566l-1.274-.365c-1.185.363-2.38.787-3.452 1.356a.568.568 0 1 1-.529-1.007c.687-.364 1.412-.67 2.147-.938-1.567-.558-3.099-1.281-4.36-2.363l-.253-.225c-.027.197-.04.4-.04.607v10.756l.005.002.13.012.071-.031c2.11-1.856 5.006-2.674 7.555-3.394 2.31-.652 4.275-1.207 4.56-2.205-.112-.391-.482-.714-1.03-1.002" fill="#fff"/></svg>