<svg width="24" height="24" fill="none" xmlns="http://www.w3.org/2000/svg"><path clip-rule="evenodd" d="M17.169 18.739H6.019l1.037-1.714V11.69c0-2.48 1.43-4.583 3.36-5.203a3.834 3.834 0 0 1 2.356 0c.776.249 1.473.739 2.027 1.397.822.977 1.333 2.324 1.333 3.806v5.334l1.037 1.714z" stroke="#fff" stroke-width="1.3" stroke-linecap="round" stroke-linejoin="round"/><path clip-rule="evenodd" d="M12.784 6.302c0 .063-.004.125-.012.186a3.837 3.837 0 0 0-2.356 0 1.31 1.31 0 0 1-.013-.186c0-.708.533-1.282 1.19-1.282.658 0 1.191.574 1.191 1.282z" stroke="#fff" stroke-width="1.3" stroke-linecap="round" stroke-linejoin="round"/></svg>