<svg width="24" height="24" fill="none" xmlns="http://www.w3.org/2000/svg"><path fill-rule="evenodd" clip-rule="evenodd" d="M18.05 10.126l1.121.19c.478.08.826.492.819.976v1.406a.986.986 0 0 1-.825.976l-1.122.187a6.28 6.28 0 0 1-.451 1.089l.66.928a.988.988 0 0 1-.106 1.273l-.995.995a.981.981 0 0 1-.698.29.981.981 0 0 1-.575-.183l-.925-.661a6.32 6.32 0 0 1-1.09.45l-.19 1.123a.986.986 0 0 1-.975.825h-1.41a.987.987 0 0 1-.975-.825l-.187-1.122a6.316 6.316 0 0 1-1.055-.435l-.94.668a.98.98 0 0 1-1.269-.107l-.995-.995a.985.985 0 0 1-.107-1.272l.658-.916a6.17 6.17 0 0 1-.457-1.085l-1.136-.194A.987.987 0 0 1 4 12.732v-1.407c0-.484.347-.895.825-.975l1.11-.187a6.08 6.08 0 0 1 .443-1.092l-.668-.939a.989.989 0 0 1 .107-1.273l.999-.995a.974.974 0 0 1 .698-.29.98.98 0 0 1 .574.183l.92.661c.346-.187.71-.34 1.085-.457l.194-1.136A.986.986 0 0 1 11.262 4h1.406c.484 0 .895.347.976.825l.187 1.11c.39.116.768.273 1.129.463l.928-.661a.98.98 0 0 1 1.269.107l.996.995a.986.986 0 0 1 .107 1.273l-.662.925c.184.348.334.712.451 1.09zm.972 2.659l-1.404.234 1.404-.234zm-1.404.234a.448.448 0 0 0-.36.33l.36-.33zm-.36.33a5.317 5.317 0 0 1-.582 1.4l.582-1.4zm-.582 1.4a.452.452 0 0 0 .02.491l-.02-.49zm.02.491l.826 1.163-.826-1.163zm.826 1.163a.09.09 0 0 1-.01.113l.01-.113zm-.01.113l-.996.996.995-.996zm-.996.996a.09.09 0 0 1-.034.022l.034-.022zm-.034.022a.085.085 0 0 1-.03.004l.03-.004zm-.03.004a.084.084 0 0 1-.05-.016l.05.016zm-.05-.016l-1.159-.826 1.16.826zm-1.159-.826a.451.451 0 0 0-.49-.02l.49.02zm-.49-.02a5.36 5.36 0 0 1-1.4.582l1.4-.582zm-1.4.582a.444.444 0 0 0-.331.36l.331-.36zm-.331.36l-.237 1.403.237-1.403zm-.237 1.403a.087.087 0 0 1-.087.074l.087-.074zm-.087.074h-1.406 1.406zm-1.406 0a.086.086 0 0 1-.087-.074l.087.074zm-.087-.074l-.234-1.403.234 1.403zm-.234-1.403a.448.448 0 0 0-.33-.36l.33.36zm-.33-.36a5.543 5.543 0 0 1-1.37-.562l1.37.562zm-1.37-.562a.464.464 0 0 0-.227-.06l.227.06zm-.227-.06a.47.47 0 0 0-.08.007l.08-.007zm-.08.007a.432.432 0 0 0-.18.077l.18-.077zm-.18.077l-1.17.832 1.17-.832zm-1.17.832a.1.1 0 0 1-.05.016l.05-.016zm-.05.016c-.006 0-.014 0-.023-.003l.023.003zm-.023-.003a.09.09 0 0 1-.04-.023l.04.023zm-.04-.023l-.996-.996.995.996zm-.996-.996a.09.09 0 0 1-.01-.113l.01.113zm-.01-.113l.822-1.153-.822 1.153zm.822-1.153a.457.457 0 0 0 .02-.494l-.02.494zm.02-.494a5.29 5.29 0 0 1-.588-1.396l.588 1.396zm-.588-1.396a.458.458 0 0 0-.36-.331l.36.33zm-.36-.331l-1.413-.24 1.412.24zm-1.413-.24a.087.087 0 0 1-.074-.087l.074.086zm-.074-.087v-1.407 1.407zm0-1.407c0-.043.03-.08.074-.087l-.074.087zm.074-.087l1.392-.233-1.392.233zm1.392-.233a.45.45 0 0 0 .364-.334l-.364.334zm.364-.334c.124-.491.314-.966.572-1.403l-.572 1.403zm.572-1.403a.447.447 0 0 0-.024-.488l.024.488zM7.28 8.78l-.832-1.17.832 1.17zm-.832-1.17a.085.085 0 0 1-.015-.046l.015.047zm-.015-.046a.088.088 0 0 1 .026-.067l-.026.067zm.026-.067l.995-.995-.995.995zm.995-.995a.085.085 0 0 1 .063-.027l-.063.027zm.063-.027c.02 0 .037.007.05.017l-.05-.017zm.05.017l1.153.822-1.153-.822zm1.153.822c.147.103.34.11.494.02l-.494-.02zm.494.02c.434-.26.906-.461 1.396-.588l-1.396.588zm1.396-.588a.456.456 0 0 0 .33-.361l-.33.36zm.33-.361l.242-1.413-.241 1.413zm.242-1.413a.087.087 0 0 1 .087-.073l-.087.073zm.087-.073h1.406-1.406zm1.406 0c.043 0 .08.03.087.073l-.087-.073zm.087.073l.234 1.393-.234-1.393zm.234 1.393c.03.177.16.32.334.364l-.334-.364zm.334.364c.504.127.985.324 1.432.588l-1.432-.588zm1.432.588c.154.09.344.083.491-.02l-.49.02zm.491-.02l1.153-.828-1.153.828zm1.153-.828a.1.1 0 0 1 .05-.017l-.05.017zm.05-.017a.09.09 0 0 1 .064.027l-.064-.027zm.064.027l.995.995-.995-.995zm.995.995a.09.09 0 0 1 .01.114l-.01-.114zm.01.114L16.7 8.747l.825-1.16zM16.7 8.747a.451.451 0 0 0-.02.49l.02-.49zm-.02.49c.26.438.454.91.58 1.4l-.58-1.4zm.58 1.4a.444.444 0 0 0 .362.33l-.361-.33zm.362.33l1.402.238-1.402-.237zm1.402.238a.087.087 0 0 1 .074.087l-.074-.087zm.074.087l-.003 1.406.003-1.406z" fill="#fff" stroke="#fff" stroke-width=".3"/><path fill-rule="evenodd" clip-rule="evenodd" d="M9.273 11.993A2.727 2.727 0 0 1 12 9.268a2.728 2.728 0 0 1 2.726 2.725A2.728 2.728 0 0 1 12 14.72a2.727 2.727 0 0 1-2.726-2.726zm.713 0c0 1.111.902 2.014 2.013 2.014a2.015 2.015 0 0 0 0-4.027c-1.11 0-2.013.902-2.013 2.013z" fill="#fff" stroke="#fff" stroke-width=".5"/></svg>