<svg width="18" height="18" viewBox="0 0 18 18" fill="none" xmlns="http://www.w3.org/2000/svg">
<path fill-rule="evenodd" clip-rule="evenodd" d="M14.0488 6.1261L15.1719 6.31649C15.6494 6.39666 15.9971 6.80752 15.9902 7.29185V8.69812C15.9902 9.18246 15.6426 9.59332 15.165 9.67348L14.043 9.86054C13.9287 10.2347 13.7754 10.5987 13.5918 10.9495L14.2529 11.8781C14.5332 12.2722 14.4873 12.81 14.1465 13.1507L13.1504 14.1461C12.9639 14.3332 12.7168 14.4367 12.4521 14.4367C12.2451 14.4367 12.0449 14.3733 11.8779 14.253L10.9531 13.5916C10.6055 13.7754 10.2412 13.9257 9.86426 14.0426L9.67383 15.1649C9.59375 15.6426 9.18262 15.99 8.69824 15.99H7.28809C6.80371 15.99 6.39355 15.6426 6.31348 15.1649L6.12598 14.0426C5.76172 13.929 5.4082 13.7854 5.07031 13.6084L4.13184 14.2764C3.96484 14.3967 3.76758 14.4601 3.56055 14.4601C3.29688 14.4601 3.0498 14.3566 2.8623 14.1695L1.86719 13.1741C1.52344 12.8334 1.47949 12.2956 1.76074 11.9015L2.41797 10.9862C2.23145 10.6388 2.07812 10.2747 1.96094 9.90063L0.825195 9.70689C0.347656 9.62672 0 9.21587 0 8.73152V7.32526C0 6.84092 0.347656 6.43006 0.825195 6.3499L1.93359 6.16284C2.04785 5.78539 2.19434 5.4213 2.37793 5.07056L1.70996 4.13194C1.42969 3.73779 1.47656 3.2 1.81738 2.85929L2.81543 1.86388C3 1.67683 3.25 1.57328 3.51367 1.57328C3.7207 1.57328 3.92188 1.63674 4.08887 1.757L5.00684 2.41837C5.35449 2.23132 5.71875 2.07766 6.09277 1.96075L6.28613 0.82505C6.36621 0.347389 6.77734 0 7.26172 0H8.66797C9.15234 0 9.56348 0.347389 9.64355 0.82505L9.83008 1.93403C10.2217 2.05094 10.5986 2.20793 10.96 2.39833L11.8877 1.73695C11.9766 1.67291 12.0742 1.62498 12.1768 1.59415C12.2676 1.5671 12.3623 1.55324 12.459 1.55324C12.7236 1.55324 12.9707 1.65678 13.1572 1.84384L14.1523 2.83925C14.4971 3.17995 14.54 3.71774 14.2598 4.1119L13.5986 5.03716C13.7822 5.38455 13.9326 5.74864 14.0488 6.1261ZM15.0215 8.78497L13.6191 9.01878L15.0215 8.78497ZM13.6191 9.01878C13.4414 9.04885 13.3018 9.17912 13.2578 9.34947L13.6191 9.01878ZM13.2578 9.34947C13.1309 9.8405 12.9375 10.3115 12.6768 10.7491L13.2578 9.34947ZM12.6768 10.7491C12.5869 10.9027 12.5938 11.0931 12.6973 11.2401L12.6768 10.7491ZM12.6973 11.2401L13.5215 12.4025L12.6973 11.2401ZM13.5215 12.4025C13.5449 12.4359 13.542 12.486 13.5117 12.5161L13.5215 12.4025ZM13.5117 12.5161L12.5166 13.5115L13.5117 12.5161ZM12.5166 13.5115C12.4932 13.5349 12.4697 13.5382 12.4531 13.5382L12.5166 13.5115ZM12.4531 13.5382C12.4434 13.5382 12.4346 13.5367 12.4268 13.534L12.4531 13.5382ZM12.4268 13.534C12.418 13.5311 12.4102 13.5268 12.4033 13.5215L12.4268 13.534ZM12.4033 13.5215L11.2441 12.6964L12.4033 13.5215ZM11.2441 12.6964C11.1006 12.5929 10.9062 12.5862 10.7529 12.6764L11.2441 12.6964ZM10.7529 12.6764C10.3154 12.937 9.84473 13.1307 9.35352 13.2576L10.7529 12.6764ZM9.35352 13.2576C9.17969 13.301 9.0498 13.4447 9.02246 13.6184L9.35352 13.2576ZM9.02246 13.6184L8.78516 15.0213L9.02246 13.6184ZM8.78516 15.0213C8.77832 15.0647 8.74219 15.0948 8.69824 15.0948L8.78516 15.0213ZM8.69824 15.0948H7.29199H8.69824ZM7.29199 15.0948C7.24902 15.0948 7.21191 15.0647 7.20508 15.0213L7.29199 15.0948ZM7.20508 15.0213L6.97168 13.6184L7.20508 15.0213ZM6.97168 13.6184C6.94141 13.4413 6.81152 13.301 6.64062 13.2576L6.97168 13.6184ZM6.64062 13.2576C6.16309 13.134 5.70215 12.9436 5.27148 12.6964L6.64062 13.2576ZM5.27148 12.6964C5.20117 12.6564 5.12109 12.6363 5.04395 12.6363L5.27148 12.6964ZM5.04395 12.6363C4.9541 12.6363 4.86035 12.663 4.78418 12.7198L5.04395 12.6363ZM4.78418 12.7198L3.61426 13.5516L4.78418 12.7198ZM3.61426 13.5516L3.60547 13.5571L3.61426 13.5516ZM3.60547 13.5571C3.5918 13.564 3.57812 13.5683 3.56445 13.5683L3.60547 13.5571ZM3.56445 13.5683L3.54492 13.5662L3.56445 13.5683ZM3.54492 13.5662C3.53223 13.5633 3.51562 13.5566 3.50098 13.5415L3.54492 13.5662ZM3.50098 13.5415L2.50586 12.5461L3.50098 13.5415ZM2.50586 12.5461C2.47559 12.5161 2.47266 12.4693 2.49609 12.4326L2.50586 12.5461ZM2.49609 12.4326L3.31738 11.2802L2.49609 12.4326ZM3.31738 11.2802C3.4209 11.1332 3.42773 10.9395 3.33789 10.7858L3.31738 11.2802ZM3.33789 10.7858C3.07715 10.3516 2.87598 9.88058 2.75 9.38956L3.33789 10.7858ZM2.75 9.38956C2.70312 9.21921 2.5625 9.08894 2.38867 9.05887L2.75 9.38956ZM2.38867 9.05887L0.975586 8.81837L2.38867 9.05887ZM0.975586 8.81837C0.932617 8.81169 0.902344 8.77495 0.902344 8.73152L0.975586 8.81837ZM0.902344 8.73152V7.32526V8.73152ZM0.902344 7.32526C0.902344 7.28184 0.932617 7.24509 0.975586 7.23841L0.902344 7.32526ZM0.975586 7.23841L2.36914 7.00459L0.975586 7.23841ZM2.36914 7.00459C2.5459 6.97453 2.68945 6.84425 2.73242 6.67056L2.36914 7.00459ZM2.73242 6.67056C2.85645 6.17954 3.04688 5.70522 3.30371 5.26764L2.73242 6.67056ZM3.30371 5.26764C3.39453 5.11398 3.38379 4.92359 3.28027 4.77995L3.30371 5.26764ZM3.28027 4.77995L2.44922 3.61086L3.28027 4.77995ZM2.44922 3.61086C2.42578 3.57745 2.42871 3.52734 2.45898 3.49728L2.44922 3.61086ZM2.45898 3.49728L3.4541 2.50188L2.45898 3.49728ZM3.4541 2.50188C3.47754 2.47849 3.50098 2.47515 3.51758 2.47515L3.4541 2.50188ZM3.51758 2.47515C3.53809 2.47515 3.55469 2.48183 3.56836 2.49186L3.51758 2.47515ZM3.56836 2.49186L4.7207 3.31357L3.56836 2.49186ZM4.7207 3.31357C4.86719 3.41711 5.06055 3.4238 5.21484 3.33361L4.7207 3.31357ZM5.21484 3.33361C5.64844 3.07307 6.12012 2.87265 6.61133 2.74572L5.21484 3.33361ZM6.61133 2.74572C6.78125 2.69895 6.91113 2.55866 6.94141 2.38496L6.61133 2.74572ZM6.94141 2.38496L7.18164 0.972023L6.94141 2.38496ZM7.18164 0.972023C7.18848 0.928596 7.22559 0.898537 7.26855 0.898537L7.18164 0.972023ZM7.26855 0.898537H8.6748H7.26855ZM8.6748 0.898537C8.71875 0.898537 8.75488 0.928596 8.76172 0.972023L8.6748 0.898537ZM8.76172 0.972023L8.99609 2.36492L8.76172 0.972023ZM8.99609 2.36492C9.02637 2.54196 9.15625 2.68559 9.33008 2.72902L8.99609 2.36492ZM9.33008 2.72902C9.83398 2.85595 10.3154 3.05302 10.7627 3.31691L9.33008 2.72902ZM10.7627 3.31691C10.917 3.4071 11.1074 3.40041 11.2539 3.29687L10.7627 3.31691ZM11.2539 3.29687L12.4062 2.46848L11.2539 3.29687ZM12.4062 2.46848C12.4229 2.45845 12.4395 2.45177 12.4561 2.45177L12.4062 2.46848ZM12.4561 2.45177C12.4697 2.45177 12.4961 2.45512 12.5195 2.47849L12.4561 2.45177ZM12.5195 2.47849L13.5156 3.4739L12.5195 2.47849ZM13.5156 3.4739C13.5293 3.48812 13.5381 3.50607 13.54 3.52493L13.5156 3.4739ZM13.54 3.52493C13.543 3.54595 13.5381 3.5681 13.5254 3.58747L13.54 3.52493ZM13.5254 3.58747L12.7002 4.74655L13.5254 3.58747ZM12.7002 4.74655C12.5967 4.89018 12.5898 5.08392 12.6807 5.23758L12.7002 4.74655ZM12.6807 5.23758C12.9404 5.67516 13.1348 6.14613 13.2617 6.63716L12.6807 5.23758ZM13.2617 6.63716C13.3047 6.81085 13.4482 6.94112 13.6221 6.96785L13.2617 6.63716ZM13.6221 6.96785L15.0254 7.20501L13.6221 6.96785ZM15.0254 7.20501C15.0684 7.21169 15.0986 7.24844 15.0986 7.29185L15.0254 7.20501ZM15.0986 7.29185L15.0957 8.69812L15.0986 7.29185Z" transform="translate(1 1.00003)" fill="white" stroke="white" stroke-width="0.3"/>
<path fill-rule="evenodd" clip-rule="evenodd" d="M0 2.72572C0 1.22169 1.22168 0 2.72559 0C4.22949 0 5.45117 1.22169 5.45117 2.72572C5.45117 4.22974 4.22949 5.45142 2.72559 5.45142C1.22168 5.45142 0 4.22974 0 2.72572ZM0.712891 2.72572C0.712891 3.83658 1.61523 4.73899 2.72656 4.73899C3.83691 4.73899 4.73926 3.83658 4.73926 2.72572C4.73926 1.61485 3.83691 0.712433 2.72656 0.712433C1.61523 0.712433 0.712891 1.61485 0.712891 2.72572Z" transform="translate(6.27344 6.26764)" fill="white" stroke="white" stroke-width="0.5"/>
</svg>
