<?xml version="1.0" encoding="utf-8"?>
<!-- Generator: Adobe Illustrator 22.1.0, SVG Export Plug-In . SVG Version: 6.00 Build 0)  -->
<svg version="1.1" id="Слой_1" xmlns="http://www.w3.org/2000/svg" xmlns:xlink="http://www.w3.org/1999/xlink" x="0px" y="0px"
	 viewBox="0 0 14 16" style="enable-background:new 0 0 14 16;" xml:space="preserve">
<style type="text/css">
	.st0{fill:#FFFFFF;}
</style>
<path class="st0" d="M12.7,15.5H1.3c-0.4,0-0.6-0.3-0.6-0.7V1.6c0-0.7,0.5-1.2,1.2-1.2h8c0.2,0,0.3,0.1,0.5,0.2s0.2,0.3,0.2,0.5
	l0,2.5l2.2,0c0.4,0,0.6,0.3,0.6,0.6v10.6C13.3,15.2,13,15.5,12.7,15.5z M1.9,14.2H12V4.8l-2.2,0c-0.2,0-0.3-0.1-0.5-0.2
	C9.2,4.5,9.2,4.4,9.2,4.2l0-2.5H1.9L1.9,14.2z"/>
<path class="st0" d="M12.7,4.9C12.7,4.9,12.7,4.9,12.7,4.9l-2.9,0c-0.2,0-0.3-0.1-0.5-0.2C9.2,4.5,9.2,4.4,9.2,4.2l0-3.2
	c0-0.3,0.2-0.5,0.4-0.6c0.3-0.1,0.5,0,0.7,0.2l2.8,3.2c0.2,0.2,0.2,0.5,0.1,0.7C13.2,4.7,12.9,4.9,12.7,4.9z M10.5,3.5l0.8,0
	l-0.8-0.8L10.5,3.5z"/>
<path class="st0" d="M12.7,4.2l-2.9,0l0-3.2L12.7,4.2z"/>
<path class="st0" d="M7.1,6.1H4.5c-0.4,0-0.6-0.3-0.6-0.6s0.3-0.6,0.6-0.6h2.6c0.4,0,0.6,0.3,0.6,0.6S7.4,6.1,7.1,6.1z"/>
<path class="st0" d="M9,8.6H4.5C4.1,8.6,3.9,8.4,3.9,8s0.3-0.6,0.6-0.6H9c0.4,0,0.7,0.3,0.7,0.6S9.4,8.6,9,8.6z"/>
<path class="st0" d="M8.9,11.5H4.5c-0.4,0-0.6-0.3-0.6-0.7s0.3-0.7,0.6-0.7h4.4c0.4,0,0.7,0.3,0.7,0.7S9.3,11.5,8.9,11.5z"/>
</svg>
