<svg width="14" height="16" viewBox="0 0 14 16" fill="none" xmlns="http://www.w3.org/2000/svg">
<path fill-rule="evenodd" clip-rule="evenodd" d="M12.5537 2.2998H9.52246V1.7577C9.52246 0.788498 8.80371 0 7.91992 0H5.03809C4.1543 0 3.43555 0.788498 3.43555 1.7577V2.2998H0.404297C0.179688 2.2998 0 2.49692 0 2.74332C0 2.98973 0.179688 3.18686 0.404297 3.18686H1.13477V12.6082C1.13477 13.9158 2.10547 14.9803 3.29785 14.9803H9.66016C10.8525 14.9803 11.8232 13.9158 11.8232 12.6082V3.18686H12.5537C12.7783 3.18686 12.958 2.98973 12.958 2.74332C12.958 2.49692 12.7783 2.2998 12.5537 2.2998ZM4.24414 1.7577C4.24414 1.27803 4.60059 0.887062 5.03809 0.887062H7.91992C8.35645 0.887062 8.71289 1.27803 8.71289 1.7577V2.29979H4.24414V1.7577ZM3.29785 14.0932H9.66016C10.4062 14.0932 11.0146 13.4263 11.0176 12.6082V3.18686H1.94434V12.6082C1.94434 13.4263 2.55273 14.0932 3.29785 14.0932Z" transform="translate(0.52832 0.5)" fill="white" stroke="white" stroke-width="0.5"/>
</svg>
