<?xml version="1.0" encoding="utf-8"?>
<!-- Generator: Adobe Illustrator 22.1.0, SVG Export Plug-In . SVG Version: 6.00 Build 0)  -->
<svg version="1.1" id="Слой_1" xmlns="http://www.w3.org/2000/svg" xmlns:xlink="http://www.w3.org/1999/xlink" x="0px" y="0px"
	 viewBox="0 0 16 16" style="enable-background:new 0 0 16 16;" xml:space="preserve">
<style type="text/css">
	.st0{fill:#FFFFFF;}
</style>
<path class="st0" d="M15,14.9c0,0-0.1,0-0.1,0l-4-0.8c-0.1,0-0.2-0.1-0.3-0.2L0.7,4.7C0.5,4.5,0.4,4.2,0.4,3.9
	c0-0.4,0.2-0.8,0.5-1.1l2-1.9c0.6-0.6,1.4-0.6,2-0.1l9.8,9.3c0.1,0.1,0.2,0.2,0.2,0.3l0.7,3.8c0,0.2,0,0.4-0.2,0.6
	C15.3,14.8,15.1,14.9,15,14.9z M11.3,12.9l2.9,0.5l-0.5-2.6L4,1.7c0,0-0.1,0-0.2,0.1l-2,1.9c0,0-0.1,0.1-0.1,0.1L11.3,12.9z"/>
<path class="st0" d="M2.8,6.4c-0.2,0-0.3-0.1-0.5-0.2C2,5.9,2,5.5,2.3,5.3l3.3-3C5.8,2,6.3,2,6.5,2.3c0.2,0.3,0.2,0.7,0,0.9l-3.3,3
	C3.1,6.4,2.9,6.4,2.8,6.4z"/>
<path class="st0" d="M10.9,13.9c-0.4,0-0.7-0.3-0.7-0.7V12c0-0.4,0.3-0.7,0.7-0.7h1v-0.9c0-0.4,0.3-0.7,0.7-0.7h1.6
	c0.4,0,0.7,0.3,0.7,0.7s-0.3,0.7-0.7,0.7h-0.9V12c0,0.4-0.3,0.7-0.7,0.7h-1v0.6C11.6,13.6,11.3,13.9,10.9,13.9z"/>
</svg>
