<?xml version="1.0" encoding="utf-8"?>
<!-- Generator: Adobe Illustrator 22.1.0, SVG Export Plug-In . SVG Version: 6.00 Build 0)  -->
<svg version="1.1" id="Слой_1" xmlns="http://www.w3.org/2000/svg" xmlns:xlink="http://www.w3.org/1999/xlink" x="0px" y="0px"
	 viewBox="0 0 13 16" style="enable-background:new 0 0 13 16;" xml:space="preserve">
<style type="text/css">
	.st0{fill:#FFFFFF;}
</style>
<path class="st0" d="M12.2,15.4H1c-0.2,0-0.5-0.1-0.6-0.3s-0.1-0.5,0-0.7l0.9-1.6V7.7C1.4,5,3,2.6,5.2,1.9l0.2,0
	c0.8-0.2,1.6-0.2,2.4,0L8,1.9c0.9,0.3,1.7,0.8,2.3,1.6c1,1.1,1.5,2.6,1.5,4.2v5.2l0.9,1.6c0.1,0.2,0.1,0.5,0,0.7
	S12.4,15.4,12.2,15.4z M2.2,14.1H11l-0.4-0.7c-0.1-0.1-0.1-0.2-0.1-0.3V7.7c0-1.3-0.4-2.5-1.2-3.4c-0.5-0.6-1.1-1-1.7-1.2l-0.1,0
	c-0.6-0.2-1.2-0.2-1.7,0l-0.1,0C3.9,3.7,2.7,5.5,2.7,7.7V13c0,0.1,0,0.2-0.1,0.3L2.2,14.1z"/>
<path class="st0" d="M7.8,3.1c-0.1,0-0.1,0-0.2,0l-0.1,0c-0.6-0.2-1.2-0.2-1.7,0l-0.1,0C5.4,3.2,5.2,3.1,5.1,3
	C4.9,2.9,4.8,2.8,4.8,2.6c0-0.1,0-0.2,0-0.3c0-1.1,0.8-1.9,1.8-1.9s1.8,0.9,1.8,1.9c0,0.1,0,0.2,0,0.3c0,0.2-0.1,0.4-0.3,0.5
	C8,3.1,7.9,3.1,7.8,3.1z"/>
</svg>
