<?xml version="1.0" encoding="utf-8"?>
<!-- Generator: Adobe Illustrator 22.1.0, SVG Export Plug-In . SVG Version: 6.00 Build 0)  -->
<svg version="1.1" id="Слой_1" xmlns="http://www.w3.org/2000/svg" xmlns:xlink="http://www.w3.org/1999/xlink" x="0px" y="0px"
	 viewBox="0 0 19 18" style="enable-background:new 0 0 19 18;" xml:space="preserve">
<style type="text/css">
	.st0{fill:#FFFFFF;}
</style>
<path class="st0" d="M13.5,13.3c-0.2,0-0.4-0.1-0.5-0.2c-0.3-0.3-0.3-0.8,0-1.1l3-3l-3-3c-0.3-0.3-0.3-0.8,0-1.1s0.8-0.3,1.1,0l4,4
	l-4,4C13.9,13.2,13.7,13.3,13.5,13.3z"/>
<path class="st0" d="M17,9.8H5.5C5.1,9.8,4.8,9.4,4.8,9s0.3-0.8,0.8-0.8H17c0.4,0,0.8,0.3,0.8,0.8S17.4,9.8,17,9.8z"/>
<path class="st0" d="M8.4,17.7H1.6c-0.7,0-1.3-0.6-1.3-1.3V1.6c0-0.7,0.6-1.3,1.3-1.3h6.9c0.4,0,0.8,0.3,0.8,0.8S8.9,1.8,8.4,1.8
	H1.8v14.5h6.7c0.4,0,0.8,0.3,0.8,0.8S8.9,17.7,8.4,17.7z"/>
</svg>
