<?xml version="1.0" encoding="utf-8"?>
<!-- Generator: Adobe Illustrator 22.1.0, SVG Export Plug-In . SVG Version: 6.00 Build 0)  -->
<svg version="1.1" id="Слой_1" xmlns="http://www.w3.org/2000/svg" xmlns:xlink="http://www.w3.org/1999/xlink" x="0px" y="0px"
	 viewBox="0 0 13 17" style="enable-background:new 0 0 13 17;" xml:space="preserve">
<style type="text/css">
	.st0{fill:#FFFFFF;}
</style>
<path class="st0" d="M6.3,7.7c-2,0-3.6-1.7-3.6-3.7s1.6-3.7,3.6-3.7S10,1.9,10,4S8.3,7.7,6.3,7.7z M6.3,1.6C5,1.6,3.9,2.7,3.9,4
	S5,6.4,6.3,6.4S8.6,5.3,8.6,4S7.6,1.6,6.3,1.6z"/>
<path class="st0" d="M6.3,16c-2.1,0-4.1-0.6-5.8-1.8L0.3,14v-0.3c0-2,1-3.9,2.6-5.1c1.6-1.1,3.6-1.4,5.5-0.8c2.4,0.8,4,3.2,4,5.9V14
	L12,14.2C10.4,15.4,8.4,16,6.3,16z M1.6,13.3c2.8,1.8,6.7,1.8,9.5,0c-0.1-2-1.4-3.7-3.1-4.3C6.4,8.5,4.8,8.7,3.6,9.6
	C2.4,10.5,1.7,11.8,1.6,13.3z"/>
</svg>
