<svg width="16" height="16" viewBox="0 0 16 16" fill="none" xmlns="http://www.w3.org/2000/svg">
<path fill-rule="evenodd" clip-rule="evenodd" d="M10.4167 9.16667H9.75833L9.525 8.94167C10.3417 7.99167 10.8333 6.75833 10.8333 5.41667C10.8333 2.425 8.40833 0 5.41667 0C2.425 0 0 2.425 0 5.41667C0 8.40833 2.425 10.8333 5.41667 10.8333C6.75833 10.8333 7.99167 10.3417 8.94167 9.525L9.16667 9.75833V10.4167L13.3333 14.575L14.575 13.3333L10.4167 9.16667ZM5.41699 9.16667C3.34199 9.16667 1.66699 7.49167 1.66699 5.41667C1.66699 3.34167 3.34199 1.66667 5.41699 1.66667C7.49199 1.66667 9.16699 3.34167 9.16699 5.41667C9.16699 7.49167 7.49199 9.16667 5.41699 9.16667Z" transform="translate(0.5 0.5)" fill="#525F76"/>
</svg>
