<svg width="14" height="14" viewBox="0 0 14 14" fill="none" xmlns="http://www.w3.org/2000/svg">
<g id="Group 13">
<path id="Rectangle 17" fill-rule="evenodd" clip-rule="evenodd" d="M0 1C0 0.447715 0.447715 0 1 0H2C2.55228 0 3 0.447715 3 1V2C3 2.55228 2.55228 3 2 3H1C0.447715 3 0 2.55228 0 2V1Z" transform="translate(0.5 0.5)" fill="#525F76"/>
<path id="Rectangle 17 Copy 3" fill-rule="evenodd" clip-rule="evenodd" d="M0 1C0 0.447715 0.447715 0 1 0H2C2.55228 0 3 0.447715 3 1V2C3 2.55228 2.55228 3 2 3H1C0.447715 3 0 2.55228 0 2V1Z" transform="translate(5.5 0.5)" fill="#525F76"/>
<path id="Rectangle 17 Copy 6" fill-rule="evenodd" clip-rule="evenodd" d="M0 1C0 0.447715 0.447715 0 1 0H2C2.55228 0 3 0.447715 3 1V2C3 2.55228 2.55228 3 2 3H1C0.447715 3 0 2.55228 0 2V1Z" transform="translate(10.5 0.5)" fill="#525F76"/>
<path id="Rectangle 17 Copy" fill-rule="evenodd" clip-rule="evenodd" d="M0 1C0 0.447715 0.447715 0 1 0H2C2.55228 0 3 0.447715 3 1V2C3 2.55228 2.55228 3 2 3H1C0.447715 3 0 2.55228 0 2V1Z" transform="translate(0.5 5.5)" fill="#525F76"/>
<path id="Rectangle 17 Copy 4" fill-rule="evenodd" clip-rule="evenodd" d="M0 1C0 0.447715 0.447715 0 1 0H2C2.55228 0 3 0.447715 3 1V2C3 2.55228 2.55228 3 2 3H1C0.447715 3 0 2.55228 0 2V1Z" transform="translate(5.5 5.5)" fill="#525F76"/>
<path id="Rectangle 17 Copy 7" fill-rule="evenodd" clip-rule="evenodd" d="M0 1C0 0.447715 0.447715 0 1 0H2C2.55228 0 3 0.447715 3 1V2C3 2.55228 2.55228 3 2 3H1C0.447715 3 0 2.55228 0 2V1Z" transform="translate(10.5 5.5)" fill="#525F76"/>
<path id="Rectangle 17 Copy 2" fill-rule="evenodd" clip-rule="evenodd" d="M0 1C0 0.447715 0.447715 0 1 0H2C2.55228 0 3 0.447715 3 1V2C3 2.55228 2.55228 3 2 3H1C0.447715 3 0 2.55228 0 2V1Z" transform="translate(0.5 10.5)" fill="#525F76"/>
<path id="Rectangle 17 Copy 5" fill-rule="evenodd" clip-rule="evenodd" d="M0 1C0 0.447715 0.447715 0 1 0H2C2.55228 0 3 0.447715 3 1V2C3 2.55228 2.55228 3 2 3H1C0.447715 3 0 2.55228 0 2V1Z" transform="translate(5.5 10.5)" fill="#525F76"/>
<path id="Rectangle 17 Copy 8" fill-rule="evenodd" clip-rule="evenodd" d="M0 1C0 0.447715 0.447715 0 1 0H2C2.55228 0 3 0.447715 3 1V2C3 2.55228 2.55228 3 2 3H1C0.447715 3 0 2.55228 0 2V1Z" transform="translate(10.5 10.5)" fill="#525F76"/>
</g>
</svg>
