<svg width="99" height="28" viewBox="0 0 99 28" fill="none" xmlns="http://www.w3.org/2000/svg">
<path fill-rule="evenodd" clip-rule="evenodd" d="M49.5664 16.5H46.4512V0H49.5664V16.5ZM3.22314 10.989V16.5H0V0.859009H6.10205C7.27588 0.859009 8.31006 1.07401 9.20117 1.504C10.0928 1.93402 10.7778 2.54401 11.2578 3.336C11.7378 4.12701 11.978 5.02802 11.978 6.03799C11.978 7.57101 11.4531 8.77902 10.4038 9.66299C9.35498 10.547 7.90283 10.99 6.04785 10.99L3.22314 10.989ZM3.22314 8.379H6.10205C6.9541 8.379 7.604 8.17801 8.05225 7.77701C8.5 7.37601 8.72314 6.80301 8.72314 6.05801C8.72314 5.29199 8.49707 4.672 8.04639 4.20001C7.59521 3.72699 6.97217 3.48401 6.17725 3.47H3.22314V8.379ZM19.4009 7.702C19.7227 7.702 20.0947 7.73102 20.5176 7.78802L20.562 4.80103C20.2607 4.70801 19.939 4.66101 19.5947 4.66101C18.4917 4.66101 17.6289 5.19501 17.0059 6.26202L16.9199 4.87601H13.9868V16.499H17.0908V8.89401C17.457 8.099 18.2271 7.702 19.4009 7.702ZM27.3608 16.715C25.6567 16.715 24.2686 16.192 23.1978 15.147C22.127 14.101 21.5918 12.709 21.5918 10.968V10.667C21.5918 9.5 21.8179 8.45599 22.2686 7.53598C22.7197 6.616 23.3589 5.90698 24.186 5.409C25.0127 4.91098 25.957 4.66199 27.0166 4.66199C28.6069 4.66199 29.8579 5.16299 30.771 6.16599C31.6836 7.16898 32.1406 8.59 32.1406 10.431V11.699H24.7397C24.8398 12.458 25.1426 13.067 25.6479 13.525C26.1528 13.983 26.792 14.213 27.5649 14.213C28.7607 14.213 29.6958 13.78 30.3687 12.913L31.8936 14.621C31.4287 15.28 30.7979 15.794 30.0029 16.163C29.208 16.532 28.3267 16.716 27.3608 16.715ZM25.5078 7.79898C25.8921 7.384 26.3911 7.17599 27.0068 7.17599C27.6641 7.17599 28.1729 7.36398 28.5308 7.73999C28.8892 8.116 29.0762 8.647 29.0898 9.33499V9.582H24.772C24.8799 8.80899 25.125 8.21399 25.5078 7.79898ZM44.3657 10.796C44.3657 12.586 43.96 14.02 43.147 15.098C42.334 16.176 41.2368 16.715 39.855 16.715C38.6807 16.715 37.7319 16.307 37.0078 15.49V20.969H33.9038V4.87698H36.7827L36.8896 6.01599C37.6416 5.11398 38.623 4.66199 39.833 4.66199C41.2646 4.66199 42.3789 5.19199 43.1738 6.25198C43.9688 7.31198 44.3657 8.77298 44.3657 10.635V10.796ZM40.687 8.06702C41.0698 8.65399 41.2617 9.48901 41.2617 10.57C41.2617 12.997 40.52 14.211 39.0376 14.211C38.064 14.211 37.3877 13.828 37.0078 13.062V8.30301C37.373 7.55801 38.043 7.186 39.0166 7.186C39.7466 7.186 40.3037 7.48001 40.687 8.06702ZM58.6099 4.87701L56.4619 12.106L54.3018 4.87601H50.9609L55.0317 16.531L54.667 17.487C54.502 17.903 54.2749 18.2 53.9849 18.379C53.6948 18.558 53.2559 18.648 52.6689 18.648L52.1958 18.637V20.99C52.6611 21.126 53.1201 21.194 53.5708 21.194C55.1689 21.194 56.314 20.435 57.0088 18.917L57.2671 18.305L61.9399 4.87701H58.6099Z" transform="translate(36.8271 4.5)" fill="white"/>
<path d="M12.355 5.884C12.355 4.723 10.259 4.131 7.761 3.425C5.211 2.705 2.316 1.887 0.206 0.031L0.134 0L0.005 0.012L0 0.014V10.77C0 11.42 0.132 12.017 0.393 12.561C0.662 13.119 1.071 13.635 1.62 14.106C3.379 15.614 6 16.354 8.313 17.007C9.85 17.441 11.272 17.843 12.355 18.42V5.885" transform="translate(0.243164 0.656006)" fill="white"/>
<path d="M0 5.63C0.112 6.021 0.482 6.344 1.03 6.632C1.93 6.265 2.997 5.964 4.129 5.644C5.829 5.164 7.692 4.637 9.284 3.793C9.561 3.647 9.905 3.754 10.051 4.032C10.197 4.31 10.091 4.654 9.813 4.8C8.115 5.701 6.191 6.244 4.436 6.74C3.805 6.918 3.197 7.09 2.638 7.268C3.225 7.457 3.877 7.641 4.558 7.834L5.832 8.199C7.017 7.836 8.212 7.412 9.284 6.844C9.561 6.697 9.905 6.804 10.051 7.082C10.197 7.36 10.091 7.704 9.813 7.851C9.126 8.215 8.401 8.521 7.666 8.789C9.233 9.348 10.765 10.07 12.027 11.152L12.279 11.377C12.306 11.18 12.319 10.978 12.319 10.77V0.014L12.315 0.012L12.186 0L12.114 0.031C10.004 1.887 7.108 2.705 4.559 3.425C2.25 4.077 0.284 4.633 0 5.63" transform="translate(14.6821 0.656006)" fill="white"/>
<path d="M0.001 12.535C0.001 13.696 2.097 14.288 4.595 14.994C7.145 15.714 10.04 16.532 12.15 18.388L12.222 18.419L12.351 18.407L12.355 18.405V7.649C12.355 6.999 12.223 6.402 11.962 5.859C11.693 5.301 11.283 4.785 10.734 4.314C8.975 2.807 6.354 2.066 4.042 1.413C2.505 0.979 1.083 0.577 0 0V12.535" transform="translate(14.645 9.05099)" fill="white"/>
<path d="M11.29 4.744C10.39 5.11 9.323 5.412 8.19 5.732C6.49 6.212 4.627 6.739 3.035 7.582C2.758 7.728 2.414 7.622 2.268 7.344C2.122 7.066 2.229 6.721 2.506 6.575C4.204 5.674 6.128 5.131 7.883 4.636C8.514 4.457 9.122 4.286 9.681 4.108C9.094 3.918 8.442 3.734 7.761 3.542L6.487 3.177C5.302 3.54 4.107 3.964 3.035 4.533C2.758 4.68 2.414 4.572 2.268 4.295C2.122 4.017 2.229 3.673 2.506 3.526C3.193 3.162 3.918 2.856 4.653 2.588C3.086 2.03 1.554 1.307 0.292 0.225L0.04 0C0.013 0.197 0 0.4 0 0.607V11.363L0.005 11.365L0.134 11.377L0.206 11.346C2.316 9.49 5.212 8.672 7.761 7.952C10.07 7.3 12.036 6.745 12.32 5.747C12.209 5.356 11.839 5.033 11.29 4.745" transform="translate(0.243164 16.094)" fill="white"/>
</svg>
