<svg width="24" height="24" viewBox="0 0 24 24" fill="none" xmlns="http://www.w3.org/2000/svg">
<path fill-rule="evenodd" clip-rule="evenodd" d="M11.1503 12.4367H0L1.03712 10.7223V5.3891C1.03712 2.90844 2.46736 0.805309 4.39712 0.185305C4.44229 0.17043 4.48825 0.15676 4.53413 0.143934C4.86864 0.0498141 5.21696 0 5.57499 0C5.93301 0 6.28171 0.0498141 6.61625 0.143934C6.66213 0.15676 6.70768 0.17043 6.75285 0.185305C7.52976 0.434577 8.22603 0.924276 8.78043 1.58243C9.60251 2.55986 10.1133 3.90673 10.1133 5.3891V10.7223L11.1503 12.4367Z" transform="translate(6.01855 6.30226)" stroke="white" stroke-width="1.3" stroke-linecap="round" stroke-linejoin="round"/>
<path fill-rule="evenodd" clip-rule="evenodd" d="M2.38116 1.28218C2.38116 1.34526 2.37705 1.40718 2.36843 1.46749C2.32325 1.45261 2.27771 1.43894 2.23182 1.42612C1.89728 1.332 1.54859 1.28218 1.19056 1.28218C0.832571 1.28218 0.484213 1.332 0.149707 1.42612C0.103824 1.43894 0.057904 1.45261 0.0127307 1.46749C0.00410667 1.40718 0 1.34526 0 1.28218C0 0.574169 0.533157 0 1.19056 0C1.848 0 2.38116 0.574169 2.38116 1.28218Z" transform="translate(10.4033 5.02007)" stroke="white" stroke-width="1.3" stroke-linecap="round" stroke-linejoin="round"/>
</svg>
