<svg width="26" height="26" viewBox="0 0 26 26" fill="none" xmlns="http://www.w3.org/2000/svg">
<path fill-rule="evenodd" clip-rule="evenodd" d="M13 26C20.1797 26 26 20.1797 26 13C26 5.8203 20.1797 0 13 0C5.8203 0 0 5.8203 0 13C0 20.1797 5.8203 26 13 26Z" fill="white"/>
<path fill-rule="evenodd" clip-rule="evenodd" d="M0 1C0 0.447715 0.447715 0 1 0C1.55228 0 2 0.447715 2 1V9C2 9.55228 1.55228 10 1 10C0.447715 10 0 9.55229 0 9V1Z" transform="translate(12 8)" fill="#11369E"/>
<path fill-rule="evenodd" clip-rule="evenodd" d="M0 1C0 0.447715 0.447715 0 1 0C1.55228 0 2 0.447715 2 1V9C2 9.55228 1.55228 10 1 10C0.447715 10 0 9.55229 0 9V1Z" transform="translate(18 12) rotate(90)" fill="#11369E"/>
</svg>
