<svg width="24" height="24" viewBox="0 0 24 24" fill="none" xmlns="http://www.w3.org/2000/svg">
<path fill-rule="evenodd" clip-rule="evenodd" d="M14.0493 6.1261L15.1714 6.31649C15.6494 6.39666 15.9966 6.80752 15.9897 7.29185V8.69812C15.9897 9.18246 15.6426 9.59332 15.165 9.67348L14.0425 9.86054C13.9292 10.2347 13.7754 10.5987 13.5918 10.9495L14.2529 11.8781C14.5337 12.2722 14.4868 12.81 14.146 13.1507L13.1509 14.1461C12.9639 14.3332 12.7163 14.4367 12.4526 14.4367C12.2456 14.4367 12.0449 14.3733 11.8779 14.253L10.9526 13.5916C10.6055 13.7754 10.2412 13.9257 9.86377 14.0426L9.67334 15.1649C9.59326 15.6426 9.18262 15.99 8.69824 15.99H7.28857C6.8042 15.99 6.39355 15.6426 6.31299 15.1649L6.12598 14.0426C5.76221 13.929 5.40771 13.7854 5.0708 13.6084L4.13184 14.2764C3.96484 14.3967 3.76807 14.4601 3.56055 14.4601C3.29688 14.4601 3.0498 14.3566 2.86279 14.1695L1.86719 13.1741C1.52295 12.8334 1.47998 12.2956 1.76025 11.9015L2.41846 10.9862C2.23145 10.6388 2.07764 10.2747 1.96094 9.90063L0.825195 9.70689C0.347168 9.62672 0 9.21587 0 8.73152V7.32526C0 6.84092 0.347168 6.43006 0.825195 6.3499L1.93408 6.16284C2.04736 5.78539 2.19434 5.4213 2.37842 5.07056L1.71045 4.13194C1.42969 3.73779 1.47656 3.2 1.81689 2.85929L2.81592 1.86388C2.99951 1.67683 3.25 1.57328 3.51416 1.57328C3.72119 1.57328 3.92139 1.63674 4.08838 1.757L5.00732 2.41837C5.35449 2.23132 5.71875 2.07766 6.09277 1.96075L6.28662 0.82505C6.3667 0.347389 6.77734 0 7.26172 0H8.66797C9.15234 0 9.56348 0.347389 9.64355 0.82505L9.83057 1.93403C10.2212 2.05094 10.5986 2.20793 10.9595 2.39833L11.8882 1.73695C12.0552 1.6167 12.252 1.55324 12.4595 1.55324C12.7231 1.55324 12.9702 1.65678 13.1572 1.84384L14.1528 2.83925C14.4971 3.17995 14.5405 3.71774 14.2598 4.1119L13.5981 5.03716C13.7822 5.38455 13.9321 5.74864 14.0493 6.1261ZM15.0215 8.78497L13.6182 9.01878L15.0215 8.78497ZM13.6182 9.01878C13.4414 9.04885 13.3008 9.17912 13.2578 9.34947L13.6182 9.01878ZM13.2578 9.34947C13.1309 9.8405 12.937 10.3115 12.6763 10.7491L13.2578 9.34947ZM12.6763 10.7491C12.5864 10.9027 12.5928 11.0931 12.6963 11.2401L12.6763 10.7491ZM12.6963 11.2401L13.5215 12.4025L12.6963 11.2401ZM13.5215 12.4025C13.5449 12.4359 13.5415 12.486 13.5112 12.5161L13.5215 12.4025ZM13.5112 12.5161L12.5161 13.5115L13.5112 12.5161ZM12.5161 13.5115C12.5044 13.5231 12.4927 13.5298 12.4819 13.5335L12.5161 13.5115ZM12.4819 13.5335C12.4712 13.5374 12.4609 13.5382 12.4526 13.5382L12.4819 13.5335ZM12.4526 13.5382C12.4326 13.5382 12.416 13.5315 12.4023 13.5215L12.4526 13.5382ZM12.4023 13.5215L11.2432 12.6964L12.4023 13.5215ZM11.2432 12.6964C11.0996 12.5929 10.9062 12.5862 10.7524 12.6764L11.2432 12.6964ZM10.7524 12.6764C10.3149 12.937 9.84375 13.1307 9.35303 13.2576L10.7524 12.6764ZM9.35303 13.2576C9.1792 13.301 9.04883 13.4447 9.02197 13.6184L9.35303 13.2576ZM9.02197 13.6184L8.78516 15.0213L9.02197 13.6184ZM8.78516 15.0213C8.77832 15.0647 8.7417 15.0948 8.69824 15.0948L8.78516 15.0213ZM8.69824 15.0948H7.29199H8.69824ZM7.29199 15.0948C7.24854 15.0948 7.21143 15.0647 7.20508 15.0213L7.29199 15.0948ZM7.20508 15.0213L6.97119 13.6184L7.20508 15.0213ZM6.97119 13.6184C6.94092 13.4413 6.81104 13.301 6.64062 13.2576L6.97119 13.6184ZM6.64062 13.2576C6.1626 13.134 5.70166 12.9436 5.271 12.6964L6.64062 13.2576ZM5.271 12.6964C5.20068 12.6564 5.12061 12.6363 5.04395 12.6363L5.271 12.6964ZM5.04395 12.6363C5.01758 12.6363 4.99121 12.6386 4.96484 12.6431L5.04395 12.6363ZM4.96484 12.6431C4.90088 12.6543 4.83789 12.6795 4.7832 12.7198L4.96484 12.6431ZM4.7832 12.7198L3.61426 13.5516L4.7832 12.7198ZM3.61426 13.5516C3.59766 13.5616 3.58057 13.5683 3.56396 13.5683L3.61426 13.5516ZM3.56396 13.5683C3.55811 13.5683 3.5498 13.5676 3.54053 13.565L3.56396 13.5683ZM3.54053 13.565C3.52832 13.5616 3.51367 13.5548 3.50049 13.5415L3.54053 13.565ZM3.50049 13.5415L2.50537 12.5461L3.50049 13.5415ZM2.50537 12.5461C2.4751 12.5161 2.47168 12.4693 2.49512 12.4326L2.50537 12.5461ZM2.49512 12.4326L3.31689 11.2802L2.49512 12.4326ZM3.31689 11.2802C3.42041 11.1332 3.42725 10.9395 3.33691 10.7858L3.31689 11.2802ZM3.33691 10.7858C3.07617 10.3516 2.87598 9.88058 2.74902 9.38956L3.33691 10.7858ZM2.74902 9.38956C2.70215 9.21921 2.56201 9.08894 2.38818 9.05887L2.74902 9.38956ZM2.38818 9.05887L0.975586 8.81837L2.38818 9.05887ZM0.975586 8.81837C0.932129 8.81169 0.901855 8.77495 0.901855 8.73152L0.975586 8.81837ZM0.901855 8.73152V7.32526V8.73152ZM0.901855 7.32526C0.901855 7.28184 0.932129 7.24509 0.975586 7.23841L0.901855 7.32526ZM0.975586 7.23841L2.36816 7.00459L0.975586 7.23841ZM2.36816 7.00459C2.54541 6.97453 2.68896 6.84425 2.73242 6.67056L2.36816 7.00459ZM2.73242 6.67056C2.85596 6.17953 3.04639 5.70522 3.30371 5.26764L2.73242 6.67056ZM3.30371 5.26764C3.39355 5.11398 3.38379 4.92359 3.28027 4.77995L3.30371 5.26764ZM3.28027 4.77995L2.44824 3.61086L3.28027 4.77995ZM2.44824 3.61086C2.43848 3.59712 2.43359 3.58057 2.43311 3.56374L2.44824 3.61086ZM2.43311 3.56374C2.43213 3.53964 2.44043 3.51498 2.4585 3.49728L2.43311 3.56374ZM2.4585 3.49728L3.45361 2.50188L2.4585 3.49728ZM3.45361 2.50188C3.47705 2.47849 3.50049 2.47515 3.51709 2.47515L3.45361 2.50188ZM3.51709 2.47515C3.53711 2.47515 3.5542 2.48183 3.56738 2.49186L3.51709 2.47515ZM3.56738 2.49186L4.71973 3.31357L3.56738 2.49186ZM4.71973 3.31357C4.8667 3.41711 5.06055 3.4238 5.21436 3.33361L4.71973 3.31357ZM5.21436 3.33361C5.64844 3.07307 6.11963 2.87265 6.61035 2.74572L5.21436 3.33361ZM6.61035 2.74572C6.78076 2.69895 6.91113 2.55866 6.94092 2.38496L6.61035 2.74572ZM6.94092 2.38496L7.18164 0.972023L6.94092 2.38496ZM7.18164 0.972023C7.18848 0.928596 7.2251 0.898537 7.26855 0.898537L7.18164 0.972023ZM7.26855 0.898537H8.6748H7.26855ZM8.6748 0.898537C8.71826 0.898537 8.75488 0.928596 8.76172 0.972023L8.6748 0.898537ZM8.76172 0.972023L8.99561 2.36492L8.76172 0.972023ZM8.99561 2.36492C9.02539 2.54196 9.15576 2.68559 9.32959 2.72902L8.99561 2.36492ZM9.32959 2.72902C9.83398 2.85595 10.3149 3.05302 10.7622 3.31691L9.32959 2.72902ZM10.7622 3.31691C10.916 3.4071 11.1064 3.40041 11.2534 3.29687L10.7622 3.31691ZM11.2534 3.29687L12.4058 2.46848L11.2534 3.29687ZM12.4058 2.46848C12.4224 2.45845 12.4395 2.45177 12.4561 2.45177L12.4058 2.46848ZM12.4561 2.45177C12.4692 2.45177 12.4961 2.45512 12.5195 2.47849L12.4561 2.45177ZM12.5195 2.47849L13.5146 3.4739L12.5195 2.47849ZM13.5146 3.4739C13.5449 3.50397 13.5483 3.55073 13.5249 3.58747L13.5146 3.4739ZM13.5249 3.58747L12.6997 4.74655L13.5249 3.58747ZM12.6997 4.74655C12.5962 4.89018 12.5894 5.08392 12.6797 5.23758L12.6997 4.74655ZM12.6797 5.23758C12.9404 5.67516 13.1338 6.14613 13.2607 6.63716L12.6797 5.23758ZM13.2607 6.63716C13.3042 6.81085 13.4478 6.94112 13.6216 6.96785L13.2607 6.63716ZM13.6216 6.96785L15.0244 7.20501L13.6216 6.96785ZM15.0244 7.20501C15.0679 7.21169 15.0981 7.24844 15.0981 7.29185L15.0244 7.20501ZM15.0981 7.29185L15.0947 8.69812L15.0981 7.29185Z" transform="translate(4 4.00003)" fill="white" stroke="white" stroke-width="0.3"/>
<path fill-rule="evenodd" clip-rule="evenodd" d="M0 2.72572C0 1.22169 1.22168 0 2.72559 0C4.22949 0 5.45166 1.22169 5.45166 2.72572C5.45166 4.22974 4.22949 5.45142 2.72559 5.45142C1.22168 5.45142 0 4.22974 0 2.72572ZM0.712402 2.72572C0.712402 3.83658 1.61475 4.73899 2.72559 4.73899C3.83643 4.73899 4.73877 3.83658 4.73877 2.72572C4.73877 1.61485 3.83643 0.712433 2.72559 0.712433C1.61475 0.712433 0.712402 1.61485 0.712402 2.72572Z" transform="translate(9.27344 9.26764)" fill="white" stroke="white" stroke-width="0.5"/>
</svg>
