<svg width="13" height="17" viewBox="0 0 13 17" fill="none" xmlns="http://www.w3.org/2000/svg">
<path fill-rule="evenodd" clip-rule="evenodd" d="M6 3.07692C6 4.77538 4.656 6.15385 3 6.15385C1.344 6.15385 0 4.77538 0 3.07692C0 1.37846 1.344 0 3 0C4.656 0 6 1.37846 6 3.07692Z" transform="translate(3.30029 0.92308)" stroke="white" stroke-width="1.3"/>
<path fill-rule="evenodd" clip-rule="evenodd" d="M10.8 5.53857V5.53857C10.8 5.55333 10.7916 5.5681 10.7796 5.57672C9.2472 6.65118 7.3956 7.27395 5.4 7.27395C3.396 7.27395 1.536 6.64626 0 5.56318V5.53857C0 1.88441 3.456 -0.957435 7.218 0.304103C9.3888 1.03149 10.8 3.19518 10.8 5.53857Z" transform="translate(0.900391 8.08643)" stroke="white" stroke-width="1.3"/>
</svg>
