<svg id="Слой_1" xmlns="http://www.w3.org/2000/svg" viewBox="0 0 14 16"><style>.st0{fill:#fff}</style><path class="st0" d="M12.7 15.5H1.3c-.4 0-.6-.3-.6-.7V1.6C.7.9 1.2.4 1.9.4h8c.2 0 .3.1.5.2s.2.3.2.5v2.5h2.2c.4 0 .6.3.6.6v10.6c-.1.4-.4.7-.7.7zM1.9 14.2H12V4.8H9.8c-.2 0-.3-.1-.5-.2-.1-.1-.1-.2-.1-.4V1.7H1.9v12.5z"/><path class="st0" d="M12.7 4.9H9.8c-.2 0-.3-.1-.5-.2-.1-.2-.1-.3-.1-.5V1c0-.3.2-.5.4-.6.3-.1.5 0 .7.2l2.8 3.2c.2.2.2.5.1.7 0 .2-.3.4-.5.4zm-2.2-1.4h.8l-.8-.8v.8z"/><path class="st0" d="M12.7 4.2H9.8V1l2.9 3.2zM7.1 6.1H4.5c-.4 0-.6-.3-.6-.6s.3-.6.6-.6h2.6c.4 0 .6.3.6.6s-.3.6-.6.6zM9 8.6H4.5c-.4 0-.6-.2-.6-.6s.3-.6.6-.6H9c.4 0 .7.3.7.6s-.3.6-.7.6zm-.1 2.9H4.5c-.4 0-.6-.3-.6-.7s.3-.7.6-.7h4.4c.4 0 .7.3.7.7s-.3.7-.7.7z"/></svg>