<svg id="Слой_1" xmlns="http://www.w3.org/2000/svg" viewBox="0 0 13 17"><style>.st0{fill:#fff}</style><path class="st0" d="M6.3 7.7C4.3 7.7 2.7 6 2.7 4S4.3.3 6.3.3 10 1.9 10 4 8.3 7.7 6.3 7.7zm0-6.1C5 1.6 3.9 2.7 3.9 4S5 6.4 6.3 6.4 8.6 5.3 8.6 4s-1-2.4-2.3-2.4z"/><path class="st0" d="M6.3 16c-2.1 0-4.1-.6-5.8-1.8L.3 14v-.3c0-2 1-3.9 2.6-5.1 1.6-1.1 3.6-1.4 5.5-.8 2.4.8 4 3.2 4 5.9v.3l-.4.2C10.4 15.4 8.4 16 6.3 16zm-4.7-2.7c2.8 1.8 6.7 1.8 9.5 0C11 11.3 9.7 9.6 8 9c-1.6-.5-3.2-.3-4.4.6-1.2.9-1.9 2.2-2 3.7z"/></svg>