<svg id="Слой_1" xmlns="http://www.w3.org/2000/svg" viewBox="0 0 16 16"><style>.st0{fill:#fff}</style><path class="st0" d="M15 14.9h-.1l-4-.8c-.1 0-.2-.1-.3-.2L.7 4.7c-.2-.2-.3-.5-.3-.8 0-.4.2-.8.5-1.1l2-1.9c.6-.6 1.4-.6 2-.1l9.8 9.3c.1.1.2.2.2.3l.7 3.8c0 .2 0 .4-.2.6-.1 0-.3.1-.4.1zm-3.7-2l2.9.5-.5-2.6L4 1.7s-.1 0-.2.1l-2 1.9-.1.1 9.6 9.1z"/><path class="st0" d="M2.8 6.4c-.2 0-.3-.1-.5-.2-.3-.3-.3-.7 0-.9l3.3-3c.2-.3.7-.3.9 0 .2.3.2.7 0 .9l-3.3 3c-.1.2-.3.2-.4.2zm8.1 7.5c-.4 0-.7-.3-.7-.7V12c0-.4.3-.7.7-.7h1v-.9c0-.4.3-.7.7-.7h1.6c.4 0 .7.3.7.7s-.3.7-.7.7h-.9v.9c0 .4-.3.7-.7.7h-1v.6c0 .3-.3.6-.7.6z"/></svg>