<svg width="18" height="18" fill="none" xmlns="http://www.w3.org/2000/svg"><path fill-rule="evenodd" clip-rule="evenodd" d="M15.049 7.126l1.123.19c.477.08.825.492.818.976v1.406a.987.987 0 0 1-.825.976l-1.122.187a6.361 6.361 0 0 1-.451 1.089l.66.928a.989.989 0 0 1-.106 1.273l-.996.995a.978.978 0 0 1-.698.29.98.98 0 0 1-.574-.183l-.925-.661a6.353 6.353 0 0 1-1.089.45l-.19 1.123a.987.987 0 0 1-.976.825h-1.41a.986.986 0 0 1-.975-.825l-.187-1.122a6.338 6.338 0 0 1-1.056-.435l-.938.668a.982.982 0 0 1-1.27-.107l-.995-.995a.984.984 0 0 1-.106-1.272l.657-.916a6.242 6.242 0 0 1-.457-1.085l-1.136-.194A.987.987 0 0 1 1 9.732V8.325c0-.484.348-.895.825-.975l1.109-.187c.114-.378.26-.742.444-1.092l-.668-.939a.99.99 0 0 1 .107-1.273l.998-.995a.977.977 0 0 1 .699-.29c.207 0 .408.063.575.183l.918.661c.347-.187.712-.34 1.086-.457l.193-1.136A.987.987 0 0 1 8.262 1h1.406c.484 0 .895.347.976.825l.186 1.11c.392.116.769.273 1.13.463l.928-.661a.974.974 0 0 1 .571-.184.98.98 0 0 1 .698.29l.995.996a.985.985 0 0 1 .108 1.273l-.661.925c.183.348.334.712.45 1.09zm.973 2.659l-1.403.234 1.402-.234zm-1.403.234a.449.449 0 0 0-.361.33l.361-.33zm-.361.33a5.34 5.34 0 0 1-.581 1.4l.58-1.4zm-.581 1.4a.452.452 0 0 0 .02.491l-.02-.49zm.02.491l.825 1.163-.825-1.163zm.825 1.163a.09.09 0 0 1-.01.113l.01-.113zm-.01.113l-.995.996.995-.996zm-.995.996a.085.085 0 0 1-.064.026l.064-.026zm-.064.026a.08.08 0 0 1-.026-.004l.026.004zm-.026-.004a.079.079 0 0 1-.024-.012l.024.012zm-.024-.012l-1.159-.826 1.16.826zm-1.159-.826a.452.452 0 0 0-.491-.02l.491.02zm-.491-.02a5.34 5.34 0 0 1-1.4.582l1.4-.582zm-1.4.582a.444.444 0 0 0-.33.36l.33-.36zm-.33.36l-.238 1.403.237-1.403zm-.238 1.403a.086.086 0 0 1-.087.074l.087-.074zm-.087.074H8.292h1.406zm-1.406 0a.087.087 0 0 1-.087-.074l.087.074zm-.087-.074l-.233-1.403.233 1.403zm-.233-1.403a.448.448 0 0 0-.331-.36l.33.36zm-.331-.36a5.548 5.548 0 0 1-1.37-.562l1.37.562zm-1.37-.562a.464.464 0 0 0-.227-.06l.227.06zm-.227-.06a.437.437 0 0 0-.26.084l.26-.084zm-.26.084l-1.17.832 1.17-.832zm-1.17.832l-.009.005.01-.005zm-.009.005a.092.092 0 0 1-.04.011l.04-.01zm-.04.011l-.02-.002.02.002zm-.02-.002a.088.088 0 0 1-.044-.024l.044.024zm-.044-.024l-.995-.996.995.996zm-.995-.996a.09.09 0 0 1-.01-.113l.01.113zm-.01-.113l.821-1.153-.82 1.153zm.821-1.153a.458.458 0 0 0 .02-.494l-.02.494zm.02-.494a5.258 5.258 0 0 1-.587-1.396l.588 1.396zM3.75 10.39a.458.458 0 0 0-.361-.331l.361.33zm-.361-.331l-1.413-.24 1.413.24zm-1.413-.24a.087.087 0 0 1-.074-.087l.074.086zm-.074-.087V8.325v1.407zm0-1.407c0-.043.03-.08.074-.087l-.074.087zm.074-.087l1.393-.233-1.393.233zm1.393-.233a.45.45 0 0 0 .363-.334l-.363.334zm.363-.334a5.37 5.37 0 0 1 .572-1.403L3.732 7.67zm.572-1.403a.445.445 0 0 0-.024-.488l.024.488zM4.28 5.78l-.83-1.17.83 1.17zm-.83-1.17a.09.09 0 0 1 .009-.113l-.01.114zm.009-.113l.995-.995-.995.995zm.995-.995a.085.085 0 0 1 .064-.027l-.064.027zm.064-.027c.02 0 .037.007.05.017l-.05-.017zm.05.017l1.153.822-1.153-.822zm1.153.822c.146.103.34.11.494.02l-.494-.02zm.494.02c.433-.26.905-.461 1.396-.588l-1.396.588zm1.396-.588c.17-.047.3-.187.33-.361l-.33.36zm.33-.361l.24-1.413-.24 1.413zm.24-1.413A.087.087 0 0 1 8.27 1.9l-.087.073zM8.27 1.9h1.406H8.27zm1.406 0c.044 0 .08.03.087.073L9.675 1.9zm.087.073l.234 1.393-.234-1.393zm.234 1.393c.03.177.16.32.334.364l-.334-.364zm.334.364c.504.127.985.324 1.433.588l-1.433-.588zm1.433.588c.154.09.344.083.49-.02l-.49.02zm.49-.02l1.153-.828-1.152.828zm1.153-.828a.099.099 0 0 1 .05-.017l-.05.017zm.05-.017a.09.09 0 0 1 .064.027l-.064-.027zm.064.027l.996.995-.996-.995zm.996.995a.087.087 0 0 1 .024.051l-.024-.051zm.024.051a.09.09 0 0 1-.015.062l.015-.062zm-.015.062l-.825 1.16.825-1.16zm-.825 1.16a.45.45 0 0 0-.02.49l.02-.49zm-.02.49c.26.438.455.91.582 1.4l-.581-1.4zm.582 1.4a.442.442 0 0 0 .36.33l-.36-.33zm.36.33l1.403.238-1.403-.237zm1.403.238a.087.087 0 0 1 .074.087l-.074-.087zm.074.087l-.003 1.406.003-1.406z" fill="#fff" stroke="#fff" stroke-width=".3"/><path fill-rule="evenodd" clip-rule="evenodd" d="M6.273 8.993A2.727 2.727 0 0 1 9 6.268a2.727 2.727 0 0 1 2.726 2.725A2.727 2.727 0 0 1 9 11.719a2.727 2.727 0 0 1-2.726-2.726zm.713 0A2.014 2.014 0 1 0 9 6.98a2.015 2.015 0 0 0-2.014 2.013z" fill="#fff" stroke="#fff" stroke-width=".5"/></svg>