<svg id="Слой_1" xmlns="http://www.w3.org/2000/svg" viewBox="0 0 13 16"><style>.st0{fill:#fff}</style><path class="st0" d="M12.2 15.4H1c-.2 0-.5-.1-.6-.3s-.1-.5 0-.7l.9-1.6V7.7C1.4 5 3 2.6 5.2 1.9h.2c.8-.2 1.6-.2 2.4 0H8c.9.3 1.7.8 2.3 1.6 1 1.1 1.5 2.6 1.5 4.2v5.2l.9 1.6c.1.2.1.5 0 .7s-.3.2-.5.2zm-10-1.3H11l-.4-.7c-.1-.1-.1-.2-.1-.3V7.7c0-1.3-.4-2.5-1.2-3.4-.5-.6-1.1-1-1.7-1.2h-.1c-.6-.2-1.2-.2-1.7 0h-.1c-1.8.6-3 2.4-3 4.6V13c0 .1 0 .2-.1.3l-.4.8z"/><path class="st0" d="M7.8 3.1h-.3c-.6-.2-1.2-.2-1.7 0h-.1c-.3.1-.5 0-.6-.1-.2-.1-.3-.2-.3-.4v-.3c0-1.1.8-1.9 1.8-1.9s1.8.9 1.8 1.9v.3c0 .2-.1.4-.3.5h-.3z"/></svg>