<svg width="14" height="16" fill="none" xmlns="http://www.w3.org/2000/svg"><path fill-rule="evenodd" clip-rule="evenodd" d="M13.082 2.8h-3.031v-.542C10.05 1.288 9.332.5 8.448.5H5.566c-.883 0-1.602.788-1.602 1.758V2.8H.933c-.225 0-.405.197-.405.443 0 .247.18.444.405.444h.73v9.421c0 1.308.97 2.372 2.163 2.372h6.362c1.193 0 2.164-1.064 2.164-2.372V3.687h.73c.225 0 .404-.197.404-.444 0-.246-.18-.443-.404-.443zm-8.31-.542c0-.48.357-.87.794-.87h2.882c.437 0 .793.39.793.87V2.8H4.772v-.542zm-.946 12.335h6.362c.747 0 1.355-.667 1.358-1.485V3.687H2.473v9.421c0 .818.608 1.485 1.353 1.485z" fill="#fff" stroke="#fff" stroke-width=".5"/></svg>