<?xml version="1.0" standalone="no"?>
<!DOCTYPE svg PUBLIC "-//W3C//DTD SVG 20010904//EN"
 "http://www.w3.org/TR/2001/REC-SVG-20010904/DTD/svg10.dtd">
<svg version="1.0" xmlns="http://www.w3.org/2000/svg"
 width="700.000000pt" height="700.000000pt" viewBox="0 0 700.000000 700.000000"
 preserveAspectRatio="xMidYMid meet">
<metadata>
Created by potrace 1.11, written by Peter Selinger 2001-2013
</metadata>
<g transform="translate(0.000000,700.000000) scale(0.100000,-0.100000)"
fill="#000000" stroke="none">
<path d="M2824 6992 c9 -15 -3 -20 -95 -38 -131 -25 -173 -52 -285 -188 -82
-99 -140 -140 -211 -151 -25 -3 -52 -8 -61 -9 -10 -2 -39 -7 -67 -11 -27 -4
-74 -16 -105 -27 -58 -22 -201 -111 -260 -162 -238 -209 -342 -347 -500 -666
-195 -390 -251 -556 -251 -738 0 -161 12 -211 101 -437 84 -214 127 -352 144
-470 4 -23 9 -52 11 -65 3 -14 8 -74 11 -135 7 -124 32 -236 70 -310 42 -83
50 -86 173 -80 73 4 121 2 155 -7 l48 -14 -98 -38 c-117 -45 -154 -77 -154
-134 0 -62 43 -111 97 -112 26 0 39 9 70 45 20 25 42 45 48 45 6 0 37 -22 70
-49 95 -79 166 -87 274 -33 59 30 100 72 102 105 5 105 -6 169 -39 241 -54
115 -129 165 -312 209 -58 14 -157 37 -219 52 -155 37 -154 36 -146 110 20
194 40 318 65 397 34 110 60 128 126 88 34 -22 37 -21 67 22 7 10 23 19 37 19
29 2 176 -10 216 -17 67 -12 170 -11 195 1 14 8 40 41 58 74 18 34 36 61 41
61 4 0 15 -18 24 -40 9 -22 20 -40 26 -40 12 0 40 53 40 77 0 10 6 25 13 33
17 22 102 70 123 70 26 0 96 -62 164 -144 34 -41 70 -76 80 -79 38 -10 103 35
165 114 69 88 98 109 152 109 21 0 47 7 57 15 29 22 45 19 77 -16 16 -17 34
-29 41 -27 6 2 19 26 27 53 9 27 21 50 27 52 23 7 101 -65 171 -158 78 -105
114 -132 207 -156 34 -8 77 -23 96 -33 120 -62 204 -242 290 -620 22 -98 43
-185 46 -193 7 -18 37 -33 99 -46 28 -7 64 -19 82 -28 48 -25 101 -133 119
-243 3 -19 8 -38 10 -41 2 -3 6 -39 9 -80 8 -90 10 -99 30 -99 22 0 83 138
112 255 13 55 29 104 33 109 11 11 26 -23 34 -78 4 -21 8 -41 10 -45 2 -3 7
-28 11 -56 4 -27 9 -62 11 -77 11 -73 14 -98 19 -163 3 -38 7 -86 10 -105 2
-19 7 -69 11 -110 6 -81 14 -97 47 -102 27 -4 44 -38 51 -101 8 -63 13 -70 49
-63 69 14 127 75 140 147 10 54 30 114 45 136 15 24 16 23 39 -73 13 -53 21
-99 19 -101 -7 -7 16 -67 28 -75 36 -25 179 27 211 76 22 32 12 66 -19 66 -26
0 -53 25 -37 34 13 9 72 113 93 166 29 73 50 160 55 230 3 36 9 72 13 80 5 9
50 38 100 65 51 28 99 59 106 70 18 27 22 78 24 272 1 90 4 172 7 183 18 67
58 -37 72 -182 2 -16 49 -7 66 13 16 16 19 36 19 107 -1 200 -26 288 -109 380
-39 43 -44 53 -30 58 25 10 100 -69 135 -142 56 -113 80 -369 56 -574 -11 -91
-47 -253 -70 -313 -48 -127 -77 -169 -225 -320 -64 -65 -122 -129 -129 -143
-11 -21 -9 -39 16 -132 17 -59 33 -125 37 -147 4 -22 9 -50 11 -62 2 -13 7
-35 10 -50 3 -16 7 -111 9 -212 3 -210 -6 -263 -60 -374 -36 -73 -47 -151 -23
-159 6 -2 37 6 67 18 31 13 86 28 123 34 88 16 103 7 119 -67 22 -108 29 -131
43 -136 43 -17 231 128 262 202 14 32 15 265 16 1936 1 1045 -2 1918 -5 1940
-42 278 -117 420 -307 577 -52 44 -23 39 32 -5 36 -28 58 -29 58 -2 0 19 -87
93 -140 119 -25 12 -73 33 -107 47 -35 13 -64 29 -64 36 -6 58 -19 71 -114
117 -93 44 -190 106 -273 172 -48 37 -75 42 -129 19 -44 -19 -96 -20 -91 -2 3
6 19 21 36 32 53 34 38 50 -43 48 -39 -1 -135 -4 -215 -7 -223 -7 -250 4 -210
86 38 78 25 84 -115 52 -55 -13 -117 -23 -138 -23 -54 -1 -111 29 -204 109
-81 70 -115 84 -127 54 -9 -24 -31 -13 -68 36 -19 25 -42 46 -51 48 -26 5 -32
-26 -10 -51 20 -23 20 -62 0 -53 -113 48 -196 77 -257 90 -41 8 -88 18 -105
22 -52 12 -548 17 -541 6z"/>
<path d="M2984 4068 c-93 -9 -242 -46 -439 -106 -88 -27 -194 -57 -235 -67
-80 -19 -110 -37 -110 -67 0 -10 -7 -21 -15 -24 -27 -11 -34 -37 -23 -93 12
-66 60 -166 85 -176 10 -4 63 -9 118 -12 91 -5 135 1 188 22 16 7 18 3 16 -31
-3 -49 17 -87 80 -156 l49 -53 103 0 c57 0 112 3 121 8 25 11 11 34 -28 49
-39 14 -43 34 -14 71 40 51 117 39 154 -25 21 -35 49 -50 84 -46 37 5 122 47
129 65 3 7 22 22 42 32 37 19 45 19 214 5 78 -6 87 -5 81 9 -12 31 -172 103
-273 122 -235 45 -373 29 -538 -61 l-82 -45 -14 23 c-8 13 -18 44 -21 69 l-7
46 68 28 c37 16 107 53 155 82 121 72 168 92 235 99 116 11 122 16 153 117 16
50 9 64 -44 88 -59 26 -146 36 -232 27z"/>
<path d="M2426 2239 c-27 -4 -72 -18 -100 -30 -45 -21 -65 -23 -178 -21 -70 1
-130 -3 -133 -8 -16 -25 70 -74 236 -134 l97 -34 73 38 c98 50 169 70 275 76
81 4 103 12 104 36 0 21 -42 38 -142 56 -148 27 -174 30 -232 21z"/>
<path d="M4865 1824 c-33 -42 -85 -99 -116 -127 -139 -129 -154 -142 -389
-330 -32 -25 -136 -112 -148 -124 -17 -17 -27 -16 -42 2 -7 8 -22 15 -34 15
-34 0 -136 -53 -211 -110 -109 -83 -196 -140 -224 -146 -55 -12 -83 -28 -98
-58 -45 -86 -129 -162 -220 -196 -61 -23 -163 -43 -273 -54 -84 -9 -208 -28
-345 -52 -53 -10 -209 -11 -271 -3 -63 9 -79 15 -158 67 -127 82 -64 -53 96
-204 54 -52 86 -74 117 -81 51 -13 354 -15 431 -2 118 19 165 21 183 7 15 -11
31 -62 52 -158 31 -149 84 -230 165 -254 53 -16 335 -21 372 -7 12 5 97 83
188 173 159 156 289 279 600 565 30 28 84 78 120 110 36 33 87 80 114 104 26
24 63 58 81 74 62 58 149 131 249 208 56 43 111 87 124 98 21 18 29 49 16 62
-9 8 -81 -25 -152 -71 -82 -53 -122 -65 -187 -59 -62 6 -95 21 -95 45 0 9 25
80 56 157 79 198 100 277 97 359 -4 89 -21 87 -98 -10z"/>
<path d="M2988 1712 c-10 -2 -18 -12 -18 -22 0 -34 -26 -49 -78 -45 -26 2 -95
6 -154 10 -59 3 -122 8 -140 10 -18 3 -55 7 -83 10 -27 3 -95 13 -149 21 -122
20 -166 15 -225 -26 -42 -30 -48 -32 -89 -22 -42 9 -44 8 -54 -17 -28 -70 -3
-241 36 -241 8 0 44 22 80 50 104 78 188 95 476 94 254 -1 454 -22 603 -63 37
-10 78 -16 92 -13 45 8 66 86 37 137 -22 40 -277 129 -334 117z"/>
<path d="M2267 1305 c-11 -5 -24 -23 -29 -40 -6 -24 -2 -40 25 -84 45 -75 106
-124 156 -123 56 1 231 18 271 27 32 7 54 23 85 61 35 42 37 47 24 71 -16 29
-78 92 -94 94 -54 7 -422 2 -438 -6z"/>
<path d="M5850 417 c-14 -7 -55 -53 -92 -102 -201 -268 -216 -297 -155 -309
53 -10 381 -5 395 6 9 8 12 61 12 204 0 181 -1 194 -19 204 -27 14 -111 12
-141 -3z"/>
</g>
</svg>
